<svg width="384" height="512" xmlns="http://www.w3.org/2000/svg">
 <!--! Font Awesome Pro 6.4.0 by @fontawesome - https://fontawesome.com License - https://fontawesome.com/license (Commercial License) Copyright 2023 Fonticons, Inc. -->

 <g>
  <title>Layer 1</title>
  <path fill="#645A73" id="svg_1" d="m0,48c0,-26.5 21.5,-48 48,-48l0,48l0,393.4l130.1,-92.9c8.3,-6 19.6,-6 27.9,0l130,92.9l0,-393.4l-288,0l0,-48l288,0c26.5,0 48,21.5 48,48l0,440c0,9 -5,17.2 -13,21.3s-17.6,3.4 -24.9,-1.8l-154.1,-110l-154.1,110c-7.3,5.2 -16.9,5.9 -24.9,1.8s-13,-12.3 -13,-21.3l0,-440z"/>
 </g>
</svg>