<?xml version="1.0" encoding="utf-8"?>
<svg viewBox="0 0 100 100" style="margin:auto;background:transparent;display:block;" xmlns="http://www.w3.org/2000/svg">
  <g>
    <rect x="47.5" y="12.5" rx="1.5" ry="1.5" width="5" height="15" style="fill: rgb(35, 86, 238);">
      <animate attributeName="opacity" values="1;0" keyTimes="0;1" dur="1s" begin="-0.9333333333333333s" repeatCount="indefinite"/>
    </rect>
  </g>
  <g transform="matrix(0.913545, 0.406737, -0.406737, 0.913545, 24.659559, -16.014105)">
    <rect x="47.5" y="12.5" rx="1.5" ry="1.5" width="5" height="15" style="fill: rgb(35, 86, 238);">
      <animate attributeName="opacity" values="1;0" keyTimes="0;1" dur="1s" begin="-0.8666666666666667s" repeatCount="indefinite"/>
    </rect>
  </g>
  <g transform="matrix(0.669131, 0.743145, -0.743145, 0.669131, 53.700711, -20.613772)">
    <rect x="47.5" y="12.5" rx="1.5" ry="1.5" width="5" height="15" style="fill: rgb(35, 86, 238);">
      <animate attributeName="opacity" values="1;0" keyTimes="0;1" dur="1s" begin="-0.8s" repeatCount="indefinite"/>
    </rect>
  </g>
  <g transform="matrix(0.309017, 0.951057, -0.951057, 0.309017, 82.101976, -13.003676)">
    <rect x="47.5" y="12.5" rx="1.5" ry="1.5" width="5" height="15" style="fill: rgb(35, 86, 238);">
      <animate attributeName="opacity" values="1;0" keyTimes="0;1" dur="1s" begin="-0.7333333333333333s" repeatCount="indefinite"/>
    </rect>
  </g>
  <g transform="matrix(-0.104528, 0.994522, -0.994522, -0.104528, 104.952518, 5.500328)">
    <rect x="47.5" y="12.5" rx="1.5" ry="1.5" width="5" height="15" style="fill: rgb(35, 86, 238);">
      <animate attributeName="opacity" values="1;0" keyTimes="0;1" dur="1s" begin="-0.6666666666666666s" repeatCount="indefinite"/>
    </rect>
  </g>
  <g transform="matrix(-0.5, 0.866025, -0.866025, -0.5, 118.30127, 31.69873)">
    <rect x="47.5" y="12.5" rx="1.5" ry="1.5" width="5" height="15" style="fill: rgb(35, 86, 238);">
      <animate attributeName="opacity" values="1;0" keyTimes="0;1" dur="1s" begin="-0.6s" repeatCount="indefinite"/>
    </rect>
  </g>
  <g transform="matrix(-0.809017, 0.587785, -0.587785, -0.809017, 119.840112, 61.061587)">
    <rect x="47.5" y="12.5" rx="1.5" ry="1.5" width="5" height="15" style="fill: rgb(35, 86, 238);">
      <animate attributeName="opacity" values="1;0" keyTimes="0;1" dur="1s" begin="-0.5333333333333333s" repeatCount="indefinite"/>
    </rect>
  </g>
  <g transform="matrix(-0.978148, 0.207912, -0.207912, -0.978148, 109.302965, 88.511795)">
    <rect x="47.5" y="12.5" rx="1.5" ry="1.5" width="5" height="15" style="fill: rgb(35, 86, 238);">
      <animate attributeName="opacity" values="1;0" keyTimes="0;1" dur="1s" begin="-0.4666666666666667s" repeatCount="indefinite"/>
    </rect>
  </g>
  <g transform="matrix(-0.978148, -0.207912, 0.207912, -0.978148, 88.511795, 109.302965)">
    <rect x="47.5" y="12.5" rx="1.5" ry="1.5" width="5" height="15" style="fill: rgb(35, 86, 238);">
      <animate attributeName="opacity" values="1;0" keyTimes="0;1" dur="1s" begin="-0.4s" repeatCount="indefinite"/>
    </rect>
  </g>
  <g transform="matrix(-0.809017, -0.587785, 0.587785, -0.809017, 61.061587, 119.840112)">
    <rect x="47.5" y="12.5" rx="1.5" ry="1.5" width="5" height="15" style="fill: rgb(35, 86, 238);">
      <animate attributeName="opacity" values="1;0" keyTimes="0;1" dur="1s" begin="-0.3333333333333333s" repeatCount="indefinite"/>
    </rect>
  </g>
  <g transform="matrix(-0.5, -0.866025, 0.866025, -0.5, 31.69873, 118.30127)">
    <rect x="47.5" y="12.5" rx="1.5" ry="1.5" width="5" height="15" style="fill: rgb(35, 86, 238);">
      <animate attributeName="opacity" values="1;0" keyTimes="0;1" dur="1s" begin="-0.26666666666666666s" repeatCount="indefinite"/>
    </rect>
  </g>
  <g transform="matrix(-0.104528, -0.994522, 0.994522, -0.104528, 5.500328, 104.952518)">
    <rect x="47.5" y="12.5" rx="1.5" ry="1.5" width="5" height="15" style="fill: rgb(35, 86, 238);">
      <animate attributeName="opacity" values="1;0" keyTimes="0;1" dur="1s" begin="-0.2s" repeatCount="indefinite"/>
    </rect>
  </g>
  <g transform="matrix(0.309017, -0.951057, 0.951057, 0.309017, -13.003676, 82.101976)">
    <rect x="47.5" y="12.5" rx="1.5" ry="1.5" width="5" height="15" style="fill: rgb(35, 86, 238);">
      <animate attributeName="opacity" values="1;0" keyTimes="0;1" dur="1s" begin="-0.13333333333333333s" repeatCount="indefinite"/>
    </rect>
  </g>
  <g transform="matrix(0.669131, -0.743145, 0.743145, 0.669131, -20.613772, 53.700711)">
    <rect x="47.5" y="12.5" rx="1.5" ry="1.5" width="5" height="15" style="fill: rgb(35, 86, 238);">
      <animate attributeName="opacity" values="1;0" keyTimes="0;1" dur="1s" begin="-0.06666666666666667s" repeatCount="indefinite"/>
    </rect>
  </g>
  <g transform="matrix(0.913545, -0.406737, 0.406737, 0.913545, -16.014105, 24.659559)">
    <rect x="47.5" y="12.5" rx="1.5" ry="1.5" width="5" height="15" style="fill: rgb(35, 86, 238);">
      <animate attributeName="opacity" values="1;0" keyTimes="0;1" dur="1s" begin="0s" repeatCount="indefinite"/>
    </rect>
  </g>
</svg>